#!OML:ASF X:\für Bonn\!DataBase\2005_08_12_Daniel\c3d\Daniel.ASF
:FULLY-SPECIFIED
:DEGREES
439
root 15.9086 1.35568 1.12129 -762.218 -85.5867 -433.963
lowerback 24.9675 -2.75541 1.27839
upperback 7.90921 -3.96668 -0.628124
thorax -5.23375 -2.25358 -0.243685
lowerneck -6.22672 2.37338 -5.86826
upperneck -0.607125 3.47198 1.00237
head 0.736925 1.71672 1.38531
rclavicle 6.20208e-014 -5.40197e-014
rhumerus -45.1603 -18.2259 -64.5667
rradius 11.5469
rwrist 74.39
rhand -7.10845 -345.405
rfingers 7.12502
rthumb 18.7665 -374.519
lclavicle 6.20208e-014 -5.40197e-014
lhumerus -768.599 26.2372 -660.142
lradius 15.3612
lwrist -73.7176
lhand -7.18505 352.689
lfingers 7.12502
lthumb 18.6928 381.811
rfemur 392.169 19.2455 388.413
rtibia 11.9211
rfoot -30.9602 -34.2712
rtoes 33.1289
lfemur 19.2735 -24.8289 -24.3909
ltibia 31.5792
lfoot -13.9917 28.2417
ltoes 14.1069
440
root 15.913 1.35606 1.12038 -762.239 -85.5593 -433.887
lowerback 24.8927 -2.74893 1.25188
upperback 7.9007 -3.96337 -0.628074
thorax -5.20461 -2.25103 -0.233205
lowerneck -6.13838 2.35736 -5.89629
upperneck -0.692386 3.44566 1.04025
head 0.694994 1.70574 1.39874
rclavicle 5.56597e-015 -1.40752e-013
rhumerus -45.1045 -17.9902 -64.7636
rradius 11.563
rwrist 74.0865
rhand -6.91855 -345.416
rfingers 7.12502
rthumb 18.9492 -374.513
lclavicle 5.56597e-015 -1.40752e-013
lhumerus -768.397 25.8205 -659.691
lradius 15.4858
lwrist -73.1999
lhand -7.78909 352.525
lfingers 7.12502
lthumb 18.1118 381.702
rfemur 392.087 19.1629 388.337
rtibia 11.8848
rfoot -30.3629 -34.3791
rtoes 33.0683
lfemur 19.1388 -24.6429 -24.2388
ltibia 31.5629
lfoot -13.6292 28.295
ltoes 13.787
441
root 15.9171 1.35609 1.11956 -762.105 -85.5488 -433.966
lowerback 24.8058 -2.746 1.25726
upperback 7.90973 -3.95855 -0.63504
thorax -5.15258 -2.24815 -0.250131
lowerneck -6.11986 2.33874 -5.87389
upperneck -0.734715 3.41781 1.05075
head 0.679697 1.69281 1.39668
rclavicle 2.78299e-014 -3.29486e-014
rhumerus -45.106 -18.0015 -64.791
rradius 11.5881
rwrist 74.1032
rhand -6.76151 -345.364
rfingers 7.12502
rthumb 19.1002 -374.446
lclavicle 2.78299e-014 -3.29486e-014
lhumerus -768.198 25.4782 -659.313
lradius 15.6123
lwrist -72.7457
lhand -8.25292 352.424
lfingers 7.12502
lthumb 17.6655 381.641
rfemur 392.016 19.1459 388.327
rtibia 11.8582
rfoot -29.8628 -34.4504
rtoes 32.9722
lfemur 19.0018 -24.4509 -24.0706
ltibia 31.5491
lfoot -13.2593 28.3276
ltoes 13.4648
442
root 15.9204 1.35612 1.11956 -762.118 -85.5508 -433.9
lowerback 24.7222 -2.74762 1.25489
upperback 7.91905 -3.96209 -0.642015
thorax -5.10157 -2.24967 -0.26006
lowerneck -6.09244 2.32564 -5.8916
upperneck -0.781476 3.39901 1.09551
head 0.660143 1.68498 1.41251
rclavicle 3.97569e-015 -4.08502e-014
rhumerus -45.0395 -17.8637 -64.9417
rradius 11.6093
rwrist 73.9229
rhand -6.55259 -345.323
rfingers 7.12502
rthumb 19.3011 -374.385
lclavicle 3.97569e-015 -4.08502e-014
lhumerus -768.077 25.2443 -659.065
lradius 15.7399
lwrist -72.4018
lhand -8.57234 352.282
lfingers 7.12502
lthumb 17.3581 381.527
rfemur 391.921 19.057 388.245
rtibia 11.819
rfoot -29.202 -34.5485
rtoes 32.9609
lfemur 18.8796 -24.2869 -23.9429
ltibia 31.5423
lfoot -12.8813 28.3565
ltoes 13.2708
443
root 15.9231 1.35575 1.11857 -762.042 -85.5241 -433.937
lowerback 24.6693 -2.74323 1.23465
upperback 7.91865 -3.96061 -0.639516
thorax -5.07446 -2.2486 -0.249106
lowerneck -6.06538 2.30516 -5.89721
upperneck -0.816493 3.37014 1.10591
head 0.645361 1.67141 1.41524
rclavicle 9.14409e-014 -1.03989e-013
rhumerus -44.9959 -17.7337 -65.0644
rradius 11.6167
rwrist 73.7435
rhand -6.39499 -345.285
rfingers 7.12502
rthumb 19.4526 -374.332
lclavicle 9.14409e-014 -1.03989e-013
lhumerus -767.978 25.0663 -658.874
lradius 15.8292
lwrist -72.1643
lhand -8.70699 352.164
lfingers 7.12502
lthumb 17.2285 381.42
rfemur 391.865 19.0328 388.229
rtibia 11.7897
rfoot -28.6591 -34.6604
rtoes 32.7828
lfemur 18.7679 -24.146 -23.8304
ltibia 31.5368
lfoot -12.5435 28.3469
ltoes 13.1758
444
root 15.9261 1.35554 1.11871 -762.106 -85.5213 -433.817
lowerback 24.5909 -2.74122 1.22859
upperback 7.92407 -3.95953 -0.642098
thorax -5.02965 -2.24769 -0.253117
lowerneck -6.06013 2.29399 -5.92504
upperneck -0.859296 3.35574 1.1423
head 0.63066 1.66543 1.43076
rclavicle -2.22639e-014 2.88486e-014
rhumerus -44.9386 -17.607 -65.1872
rradius 11.6352
rwrist 73.6075
rhand -6.25554 -345.254
rfingers 7.12502
rthumb 19.5867 -374.288
lclavicle -2.22639e-014 2.88486e-014
lhumerus -767.869 24.8379 -658.626
lradius 15.9468
lwrist -71.7253
lhand -8.61169 352.199
lfingers 7.12502
lthumb 17.3202 381.448
rfemur 391.762 18.9914 388.168
rtibia 11.7775
rfoot -28.062 -34.7148
rtoes 32.6289
lfemur 18.6443 -24.0122 -23.7255
ltibia 31.5338
lfoot -12.1572 28.3229
ltoes 13.1661
445
root 15.9283 1.35558 1.11796 -761.951 -85.5093 -433.922
lowerback 24.5069 -2.74381 1.23449
upperback 7.93423 -3.96207 -0.646599
thorax -4.97773 -2.24866 -0.265426
lowerneck -6.0432 2.2782 -5.91472
upperneck -0.898634 3.33249 1.14012
head 0.616436 1.65442 1.42694
rclavicle 2.62396e-014 6.68413e-015
rhumerus -44.8811 -17.5252 -65.2938
rradius 11.6335
rwrist 73.4585
rhand -6.12829 -345.221
rfingers 7.12502
rthumb 19.709 -374.242
lclavicle 2.62396e-014 6.68413e-015
lhumerus -767.773 24.7368 -658.514
lradius 16.0106
lwrist -71.4487
lhand -8.34789 352.248
lfingers 7.12502
lthumb 17.5741 381.474
rfemur 391.681 18.9947 388.175
rtibia 11.7734
rfoot -27.5359 -34.8021
rtoes 32.2744
lfemur 18.5274 -23.9185 -23.6329
ltibia 31.5331
lfoot -11.7923 28.2875
ltoes 13.307
446
root 15.9303 1.35601 1.11749 -762.143 -85.4916 -433.679
lowerback 24.4428 -2.74007 1.20666
upperback 7.92491 -3.96299 -0.651568
thorax -4.95501 -2.24831 -0.257805
lowerneck -6.00504 2.26397 -5.94422
upperneck -0.932476 3.31272 1.17826
head 0.599137 1.64582 1.44275
rclavicle -3.26007e-014 -4.8901e-014
rhumerus -44.8418 -17.3804 -65.4386
rradius 11.6486
rwrist 73.2499
rhand -6.00944 -345.269
rfingers 7.12502
rthumb 19.8233 -374.278
lclavicle -3.26007e-014 -4.8901e-014
lhumerus -767.717 24.5635 -658.373
lradius 16.0588
lwrist -71.0254
lhand -7.98361 352.312
lfingers 7.12502
lthumb 17.9246 381.506
rfemur 391.609 19.0361 388.168
rtibia 11.7746
rfoot -27.0873 -34.8631
rtoes 32.012
lfemur 18.4266 -23.8502 -23.6028
ltibia 31.5379
lfoot -11.427 28.2344
ltoes 13.4246
447
root 15.9321 1.35527 1.11693 -761.937 -85.4791 -433.833
lowerback 24.3709 -2.74579 1.20825
upperback 7.9298 -3.97019 -0.648822
thorax -4.91413 -2.25167 -0.257697
lowerneck -6.02037 2.25318 -5.9502
upperneck -0.935558 3.29967 1.18969
head 0.601044 1.63957 1.44747
rclavicle -8.98507e-014 1.12065e-013
rhumerus -44.7676 -17.2097 -65.606
rradius 11.6512
rwrist 73.0359
rhand -5.98536 -345.283
rfingers 7.12502
rthumb 19.8464 -374.289
lclavicle -8.98507e-014 1.12065e-013
lhumerus -767.671 24.5454 -658.347
lradius 16.1026
lwrist -70.7798
lhand -7.49077 352.447
lfingers 7.12502
lthumb 18.3988 381.597
rfemur 391.527 19.0728 388.2
rtibia 11.7826
rfoot -26.626 -34.9123
rtoes 31.6476
lfemur 18.3148 -23.8001 -23.537
ltibia 31.5467
lfoot -11.0799 28.1321
ltoes 13.6984
448
root 15.933 1.35531 1.11604 -762.037 -85.4842 -433.706
lowerback 24.3188 -2.74104 1.21455
upperback 7.93939 -3.9635 -0.666221
thorax -4.87938 -2.24797 -0.285043
lowerneck -6.0226 2.23654 -5.95782
upperneck -0.946807 3.27822 1.23829
head 0.597987 1.62998 1.4639
rclavicle 3.18055e-015 1.16786e-014
rhumerus -44.7507 -17.1911 -65.6833
rradius 11.6579
rwrist 72.9257
rhand -5.94803 -345.29
rfingers 7.12502
rthumb 19.8823 -374.293
lclavicle 3.18055e-015 1.16786e-014
lhumerus -767.611 24.4315 -658.302
lradius 16.1183
lwrist -70.466
lhand -6.9577 352.578
lfingers 7.12502
lthumb 18.9115 381.678
rfemur 391.476 19.1516 388.256
rtibia 11.7967
rfoot -26.128 -35.0252
rtoes 31.2502
lfemur 18.262 -23.7988 -23.5569
ltibia 31.5589
lfoot -10.7933 28.0804
ltoes 13.9114
449
root 15.9351 1.35502 1.11581 -761.908 -85.478 -433.772
lowerback 24.2299 -2.74318 1.21657
upperback 7.95099 -3.96624 -0.664573
thorax -4.82276 -2.2492 -0.288784
lowerneck -6.07883 2.22553 -5.94816
upperneck -0.932959 3.26649 1.22213
head 0.612704 1.62358 1.45807
rclavicle 4.37326e-014 -6.77856e-014
rhumerus -44.6602 -17.0411 -65.8462
rradius 11.6528
rwrist 72.6555
rhand -5.94251 -345.312
rfingers 7.12502
rthumb 19.8876 -374.315
lclavicle 4.37326e-014 -6.77856e-014
lhumerus -767.607 24.5413 -658.418
lradius 16.1022
lwrist -70.4465
lhand -6.50023 352.75
lfingers 7.12502
lthumb 19.3514 381.807
rfemur 391.378 19.2247 388.302
rtibia 11.8321
rfoot -25.7515 -35.0556
rtoes 31.0627
lfemur 18.1659 -23.8288 -23.5577
ltibia 31.5701
lfoot -10.5562 27.9832
ltoes 14.368
450
root 15.9356 1.35503 1.11527 -762.016 -85.464 -433.614
lowerback 24.1603 -2.74 1.20311
upperback 7.95183 -3.96523 -0.673331
thorax -4.7872 -2.24812 -0.294606
lowerneck -6.08048 2.20951 -5.95964
upperneck -0.954464 3.24574 1.24843
head 0.606527 1.61403 1.46787
rclavicle -4.6118e-014 6.95746e-016
rhumerus -44.5801 -16.795 -66.0985
rradius 11.6718
rwrist 72.2339
rhand -5.9104 -345.406
rfingers 7.12502
rthumb 19.9185 -374.406
lclavicle -4.6118e-014 6.95746e-016
lhumerus -767.645 24.7252 -658.642
lradius 16.0359
lwrist -70.5592
lhand -6.14489 352.926
lfingers 7.12502
lthumb 19.6931 381.948
rfemur 391.3 19.3359 388.361
rtibia 11.8816
rfoot -25.4692 -35.058
rtoes 30.7045
lfemur 18.1059 -23.9126 -23.6315
ltibia 31.5851
lfoot -10.3931 27.8985
ltoes 14.6783
